{"asset":{"generator":"Khronos glTF Blender I/O v4.0.44","version":"2.0"},"scene":0,"scenes":[{"name":"Scene","nodes":[0]}],"nodes":[{"mesh":0,"name":"street_lamp_01"}],"materials":[{"doubleSided":true,"name":"street_lamp_01","normalTexture":{"index":0},"pbrMetallicRoughness":{"baseColorTexture":{"index":1},"metallicRoughnessTexture":{"index":2}}},{"alphaMode":"BLEND","doubleSided":true,"name":"street_lamp_01_glass","normalTexture":{"index":3},"pbrMetallicRoughness":{"baseColorTexture":{"index":4},"metallicRoughnessTexture":{"index":5}}},{"doubleSided":true,"name":"street_lamp_01_bulb","normalTexture":{"index":6},"pbrMetallicRoughness":{"baseColorTexture":{"index":7},"metallicRoughnessTexture":{"index":8}}}],"meshes":[{"name":"street_lamp_01_post_mesh","primitives":[{"attributes":{"POSITION":0,"NORMAL":1,"TEXCOORD_0":2},"indices":3,"material":0,"mode":4},{"attributes":{"POSITION":4,"NORMAL":5,"TEXCOORD_0":6},"indices":7,"material":1,"mode":4},{"attributes":{"POSITION":8,"NORMAL":9,"TEXCOORD_0":10},"indices":11,"material":2,"mode":4}]}],"textures":[{"sampler":0,"source":0},{"sampler":0,"source":1},{"sampler":0,"source":2},{"sampler":0,"source":0},{"sampler":0,"source":3},{"sampler":0,"source":2},{"sampler":0,"source":0},{"sampler":0,"source":1},{"sampler":0,"source":2}],"images":[{"mimeType":"image/jpeg","name":"street_lamp_01_nor_gl","uri":"textures/street_lamp_01_nor_gl_1k.jpg"},{"mimeType":"image/jpeg","name":"street_lamp_01_diff","uri":"textures/street_lamp_01_diff_1k.jpg"},{"mimeType":"image/jpeg","name":"street_lamp_01_metal-street_lamp_01_rough","uri":"textures/street_lamp_01_arm_1k.jpg"},{"mimeType":"image/jpeg","name":"street_lamp_01_diff-street_lamp_01_opacity","uri":"textures/street_lamp_01_diff_1k.jpg"}],"accessors":[{"bufferView":0,"componentType":5126,"count":1076,"type":"VEC3","min":[-0.34624889492988586,0,-0.19311150908470154],"max":[0.34624889492988586,3.867978572845459,0.19311152398586273]},{"bufferView":1,"componentType":5126,"count":1076,"type":"VEC3"},{"bufferView":2,"componentType":5126,"count":1076,"type":"VEC2"},{"bufferView":3,"componentType":5125,"count":6198,"type":"SCALAR"},{"bufferView":4,"componentType":5126,"count":10,"type":"VEC3","min":[-0.1734984666109085,3.138235569000244,-0.17394879460334778],"max":[0.1681760847568512,3.5092058181762695,0.1738712638616562]},{"bufferView":5,"componentType":5126,"count":10,"type":"VEC3"},{"bufferView":6,"componentType":5126,"count":10,"type":"VEC2"},{"bufferView":7,"componentType":5125,"count":30,"type":"SCALAR"},{"bufferView":8,"componentType":5126,"count":12,"type":"VEC3","min":[-0.021181199699640274,3.236558437347412,-0.018165355548262596],"max":[0.019945232197642326,3.2927727699279785,0.021210085600614548]},{"bufferView":9,"componentType":5126,"count":12,"type":"VEC3"},{"bufferView":10,"componentType":5126,"count":12,"type":"VEC2"},{"bufferView":11,"componentType":5125,"count":54,"type":"SCALAR"}],"bufferViews":[{"buffer":0,"byteOffset":0,"byteLength":12912},{"buffer":0,"byteOffset":12912,"byteLength":12912},{"buffer":0,"byteOffset":25824,"byteLength":8608},{"buffer":0,"byteOffset":34432,"byteLength":24792},{"buffer":0,"byteOffset":59224,"byteLength":120},{"buffer":0,"byteOffset":59344,"byteLength":120},{"buffer":0,"byteOffset":59464,"byteLength":80},{"buffer":0,"byteOffset":59544,"byteLength":120},{"buffer":0,"byteOffset":59664,"byteLength":144},{"buffer":0,"byteOffset":59808,"byteLength":144},{"buffer":0,"byteOffset":59952,"byteLength":96},{"buffer":0,"byteOffset":60048,"byteLength":216}],"samplers":[{"magFilter":9729,"minFilter":9987}],"buffers":[{"byteLength":60264,"uri":"street_lamp_01.bin"}]}