{"asset":{"generator":"Khronos glTF Blender I/O v3.6.27","version":"2.0"},"scene":0,"scenes":[{"name":"Scene","nodes":[0,1,2,3,4,5,6,7,8,9]}],"nodes":[{"mesh":0,"name":"fire_hydrant","translation":[-0.30000001192092896,0,0]},{"mesh":1,"name":"fire_hydrant_cap_01","translation":[-0.30000001192092896,0,0]},{"mesh":2,"name":"fire_hydrant_cap_02","translation":[-0.30000001192092896,0,0]},{"mesh":3,"name":"fire_hydrant_cap_03","translation":[-0.30000001192092896,0,0]},{"mesh":4,"name":"fire_hydrant_chain","translation":[-0.30000001192092896,0,0]},{"mesh":5,"name":"fire_hydrant_aged","translation":[0.30000001192092896,0,0]},{"mesh":6,"name":"fire_hydrant_cap_01_aged","translation":[0.30000001192092896,0,0]},{"mesh":7,"name":"fire_hydrant_cap_02_aged","translation":[0.30000001192092896,0,0]},{"mesh":8,"name":"fire_hydrant_cap_03_aged","translation":[0.30000001192092896,0,0]},{"mesh":9,"name":"fire_hydrant_chain_aged","translation":[0.30000001192092896,0,0]}],"materials":[{"doubleSided":true,"name":"fire_hydrant","normalTexture":{"index":0},"pbrMetallicRoughness":{"baseColorTexture":{"index":1},"metallicRoughnessTexture":{"index":2}}},{"doubleSided":true,"name":"fire_hydrant_aged","normalTexture":{"index":3},"pbrMetallicRoughness":{"baseColorTexture":{"index":4},"metallicRoughnessTexture":{"index":5}}}],"meshes":[{"name":"Cylinder.001","primitives":[{"attributes":{"POSITION":0,"NORMAL":1,"TEXCOORD_0":2},"indices":3,"material":0,"mode":4}]},{"name":"Cylinder.024","primitives":[{"attributes":{"POSITION":4,"NORMAL":5,"TEXCOORD_0":6},"indices":7,"material":0,"mode":4}]},{"name":"Cylinder.026","primitives":[{"attributes":{"POSITION":8,"NORMAL":9,"TEXCOORD_0":10},"indices":11,"material":0,"mode":4},{"attributes":{"POSITION":12,"NORMAL":13,"TEXCOORD_0":14},"indices":15,"material":0,"mode":4}]},{"name":"Cylinder.025","primitives":[{"attributes":{"POSITION":16,"NORMAL":17,"TEXCOORD_0":18},"indices":19,"material":0,"mode":4},{"attributes":{"POSITION":20,"NORMAL":21,"TEXCOORD_0":22},"indices":23,"material":0,"mode":4}]},{"name":"BezierCurve.040","primitives":[{"attributes":{"POSITION":24,"NORMAL":25,"TEXCOORD_0":26},"indices":27,"material":0,"mode":4}]},{"name":"Cylinder.006","primitives":[{"attributes":{"POSITION":28,"NORMAL":29,"TEXCOORD_0":30},"indices":31,"material":1,"mode":4}]},{"name":"Cylinder.007","primitives":[{"attributes":{"POSITION":32,"NORMAL":33,"TEXCOORD_0":34},"indices":35,"material":1,"mode":4}]},{"name":"Cylinder.009","primitives":[{"attributes":{"POSITION":36,"NORMAL":37,"TEXCOORD_0":38},"indices":39,"material":1,"mode":4},{"attributes":{"POSITION":40,"NORMAL":41,"TEXCOORD_0":42},"indices":43,"material":1,"mode":4}]},{"name":"Cylinder.008","primitives":[{"attributes":{"POSITION":44,"NORMAL":45,"TEXCOORD_0":46},"indices":47,"material":1,"mode":4},{"attributes":{"POSITION":48,"NORMAL":49,"TEXCOORD_0":50},"indices":51,"material":1,"mode":4}]},{"name":"BezierCurve.002","primitives":[{"attributes":{"POSITION":52,"NORMAL":53,"TEXCOORD_0":54},"indices":55,"material":1,"mode":4}]}],"textures":[{"sampler":0,"source":0},{"sampler":0,"source":1},{"sampler":0,"source":2},{"sampler":0,"source":3},{"sampler":0,"source":4},{"sampler":0,"source":5}],"images":[{"mimeType":"image/jpeg","name":"fire_hydrant_nor_gl","uri":"textures/fire_hydrant_nor_gl_1k.jpg"},{"mimeType":"image/jpeg","name":"fire_hydrant_diff","uri":"textures/fire_hydrant_diff_1k.jpg"},{"mimeType":"image/jpeg","name":"fire_hydrant_metal-fire_hydrant_rough","uri":"textures/fire_hydrant_arm_1k.jpg"},{"mimeType":"image/jpeg","name":"fire_hydrant_aged_nor_gl","uri":"textures/fire_hydrant_aged_nor_gl_1k.jpg"},{"mimeType":"image/jpeg","name":"fire_hydrant_aged_diff","uri":"textures/fire_hydrant_aged_diff_1k.jpg"},{"mimeType":"image/jpeg","name":"fire_hydrant_aged_metal-fire_hydrant_aged_rough","uri":"textures/fire_hydrant_aged_arm_1k.jpg"}],"accessors":[{"bufferView":0,"componentType":5126,"count":427,"type":"VEC3","min":[-0.120841845870018,5.636924527152587e-8,-0.11928418278694153],"max":[0.12548881769180298,0.7984600067138672,0.143336683511734]},{"bufferView":1,"componentType":5126,"count":427,"type":"VEC3"},{"bufferView":2,"componentType":5126,"count":427,"type":"VEC2"},{"bufferView":3,"componentType":5125,"count":3270,"type":"SCALAR"},{"bufferView":4,"componentType":5126,"count":85,"type":"VEC3","min":[-0.11990660429000854,0.31213414669036865,0.11939392983913422],"max":[0.12565623223781586,0.5506176352500916,0.19119912385940552]},{"bufferView":5,"componentType":5126,"count":85,"type":"VEC3"},{"bufferView":6,"componentType":5126,"count":85,"type":"VEC2"},{"bufferView":7,"componentType":5125,"count":618,"type":"SCALAR"},{"bufferView":8,"componentType":5126,"count":11,"type":"VEC3","min":[0.09555590897798538,0.5226336717605591,0.027492893859744072],"max":[0.12723371386528015,0.5974385738372803,0.08176898956298828]},{"bufferView":9,"componentType":5126,"count":11,"type":"VEC3"},{"bufferView":10,"componentType":5126,"count":11,"type":"VEC2"},{"bufferView":11,"componentType":5125,"count":51,"type":"SCALAR"},{"bufferView":12,"componentType":5126,"count":1,"type":"VEC3","min":[0.1280258744955063,0.571586012840271,0.07525806128978729],"max":[0.1280258744955063,0.571586012840271,0.07525806128978729]},{"bufferView":13,"componentType":5126,"count":1,"type":"VEC3"},{"bufferView":14,"componentType":5126,"count":1,"type":"VEC2"},{"bufferView":15,"componentType":5125,"count":0,"type":"SCALAR"},{"bufferView":16,"componentType":5126,"count":17,"type":"VEC3","min":[-0.14098401367664337,0.5108044147491455,0.028929831460118294],"max":[-0.0971657931804657,0.5991368293762207,0.10812936723232269]},{"bufferView":17,"componentType":5126,"count":17,"type":"VEC3"},{"bufferView":18,"componentType":5126,"count":17,"type":"VEC2"},{"bufferView":19,"componentType":5125,"count":90,"type":"SCALAR"},{"bufferView":20,"componentType":5126,"count":3,"type":"VEC3","min":[-0.13349193334579468,0.5403722524642944,0.07489081472158432],"max":[-0.12213264405727386,0.5758379697799683,0.08883508294820786]},{"bufferView":21,"componentType":5126,"count":3,"type":"VEC3"},{"bufferView":22,"componentType":5126,"count":3,"type":"VEC2"},{"bufferView":23,"componentType":5125,"count":0,"type":"SCALAR"},{"bufferView":24,"componentType":5126,"count":67,"type":"VEC3","min":[-0.11459764093160629,0.21142108738422394,0.050012845546007156],"max":[0.12122055143117905,0.5719285607337952,0.16682952642440796]},{"bufferView":25,"componentType":5126,"count":67,"type":"VEC3"},{"bufferView":26,"componentType":5126,"count":67,"type":"VEC2"},{"bufferView":27,"componentType":5125,"count":123,"type":"SCALAR"},{"bufferView":28,"componentType":5126,"count":427,"type":"VEC3","min":[-0.120841845870018,5.636924527152587e-8,-0.11928418278694153],"max":[0.12548881769180298,0.7984600067138672,0.143336683511734]},{"bufferView":29,"componentType":5126,"count":427,"type":"VEC3"},{"bufferView":30,"componentType":5126,"count":427,"type":"VEC2"},{"bufferView":31,"componentType":5125,"count":3270,"type":"SCALAR"},{"bufferView":32,"componentType":5126,"count":85,"type":"VEC3","min":[-0.11990660429000854,0.31213414669036865,0.11939392983913422],"max":[0.12565623223781586,0.5506176352500916,0.19119912385940552]},{"bufferView":33,"componentType":5126,"count":85,"type":"VEC3"},{"bufferView":34,"componentType":5126,"count":85,"type":"VEC2"},{"bufferView":35,"componentType":5125,"count":618,"type":"SCALAR"},{"bufferView":36,"componentType":5126,"count":11,"type":"VEC3","min":[0.09555590897798538,0.5226336717605591,0.027492893859744072],"max":[0.12723371386528015,0.5974385738372803,0.08176898956298828]},{"bufferView":37,"componentType":5126,"count":11,"type":"VEC3"},{"bufferView":38,"componentType":5126,"count":11,"type":"VEC2"},{"bufferView":39,"componentType":5125,"count":51,"type":"SCALAR"},{"bufferView":40,"componentType":5126,"count":1,"type":"VEC3","min":[0.1280258744955063,0.571586012840271,0.07525806128978729],"max":[0.1280258744955063,0.571586012840271,0.07525806128978729]},{"bufferView":41,"componentType":5126,"count":1,"type":"VEC3"},{"bufferView":42,"componentType":5126,"count":1,"type":"VEC2"},{"bufferView":43,"componentType":5125,"count":0,"type":"SCALAR"},{"bufferView":44,"componentType":5126,"count":17,"type":"VEC3","min":[-0.14098401367664337,0.5108044147491455,0.028929831460118294],"max":[-0.0971657931804657,0.5991368293762207,0.10812936723232269]},{"bufferView":45,"componentType":5126,"count":17,"type":"VEC3"},{"bufferView":46,"componentType":5126,"count":17,"type":"VEC2"},{"bufferView":47,"componentType":5125,"count":90,"type":"SCALAR"},{"bufferView":48,"componentType":5126,"count":3,"type":"VEC3","min":[-0.13349193334579468,0.5403722524642944,0.07489081472158432],"max":[-0.12213264405727386,0.5758379697799683,0.08883508294820786]},{"bufferView":49,"componentType":5126,"count":3,"type":"VEC3"},{"bufferView":50,"componentType":5126,"count":3,"type":"VEC2"},{"bufferView":51,"componentType":5125,"count":0,"type":"SCALAR"},{"bufferView":52,"componentType":5126,"count":67,"type":"VEC3","min":[-0.11459764093160629,0.21142108738422394,0.050012845546007156],"max":[0.12122055143117905,0.5719285607337952,0.16682952642440796]},{"bufferView":53,"componentType":5126,"count":67,"type":"VEC3"},{"bufferView":54,"componentType":5126,"count":67,"type":"VEC2"},{"bufferView":55,"componentType":5125,"count":123,"type":"SCALAR"}],"bufferViews":[{"buffer":0,"byteOffset":0,"byteLength":5124},{"buffer":0,"byteOffset":5124,"byteLength":5124},{"buffer":0,"byteOffset":10248,"byteLength":3416},{"buffer":0,"byteOffset":13664,"byteLength":13080},{"buffer":0,"byteOffset":26744,"byteLength":1020},{"buffer":0,"byteOffset":27764,"byteLength":1020},{"buffer":0,"byteOffset":28784,"byteLength":680},{"buffer":0,"byteOffset":29464,"byteLength":2472},{"buffer":0,"byteOffset":31936,"byteLength":132},{"buffer":0,"byteOffset":32068,"byteLength":132},{"buffer":0,"byteOffset":32200,"byteLength":88},{"buffer":0,"byteOffset":32288,"byteLength":204},{"buffer":0,"byteOffset":32492,"byteLength":12},{"buffer":0,"byteOffset":32504,"byteLength":12},{"buffer":0,"byteOffset":32516,"byteLength":8},{"buffer":0,"byteOffset":32524,"byteLength":0},{"buffer":0,"byteOffset":32524,"byteLength":204},{"buffer":0,"byteOffset":32728,"byteLength":204},{"buffer":0,"byteOffset":32932,"byteLength":136},{"buffer":0,"byteOffset":33068,"byteLength":360},{"buffer":0,"byteOffset":33428,"byteLength":36},{"buffer":0,"byteOffset":33464,"byteLength":36},{"buffer":0,"byteOffset":33500,"byteLength":24},{"buffer":0,"byteOffset":33524,"byteLength":0},{"buffer":0,"byteOffset":33524,"byteLength":804},{"buffer":0,"byteOffset":34328,"byteLength":804},{"buffer":0,"byteOffset":35132,"byteLength":536},{"buffer":0,"byteOffset":35668,"byteLength":492},{"buffer":0,"byteOffset":36160,"byteLength":5124},{"buffer":0,"byteOffset":41284,"byteLength":5124},{"buffer":0,"byteOffset":46408,"byteLength":3416},{"buffer":0,"byteOffset":49824,"byteLength":13080},{"buffer":0,"byteOffset":62904,"byteLength":1020},{"buffer":0,"byteOffset":63924,"byteLength":1020},{"buffer":0,"byteOffset":64944,"byteLength":680},{"buffer":0,"byteOffset":65624,"byteLength":2472},{"buffer":0,"byteOffset":68096,"byteLength":132},{"buffer":0,"byteOffset":68228,"byteLength":132},{"buffer":0,"byteOffset":68360,"byteLength":88},{"buffer":0,"byteOffset":68448,"byteLength":204},{"buffer":0,"byteOffset":68652,"byteLength":12},{"buffer":0,"byteOffset":68664,"byteLength":12},{"buffer":0,"byteOffset":68676,"byteLength":8},{"buffer":0,"byteOffset":68684,"byteLength":0},{"buffer":0,"byteOffset":68684,"byteLength":204},{"buffer":0,"byteOffset":68888,"byteLength":204},{"buffer":0,"byteOffset":69092,"byteLength":136},{"buffer":0,"byteOffset":69228,"byteLength":360},{"buffer":0,"byteOffset":69588,"byteLength":36},{"buffer":0,"byteOffset":69624,"byteLength":36},{"buffer":0,"byteOffset":69660,"byteLength":24},{"buffer":0,"byteOffset":69684,"byteLength":0},{"buffer":0,"byteOffset":69684,"byteLength":804},{"buffer":0,"byteOffset":70488,"byteLength":804},{"buffer":0,"byteOffset":71292,"byteLength":536},{"buffer":0,"byteOffset":71828,"byteLength":492}],"samplers":[{"magFilter":9729,"minFilter":9987}],"buffers":[{"byteLength":72320,"uri":"fire_hydrant.bin"}]}