{"asset":{"generator":"Khronos glTF Blender I/O v3.6.27","version":"2.0"},"scene":0,"scenes":[{"name":"Scene","nodes":[0,1,2,3,4,5,6,7]}],"nodes":[{"mesh":0,"name":"metal_trash_can_handle_left","rotation":[0,0,-0.793353259563446,0.6087616086006165],"translation":[0.22699838876724243,0.6497123837471008,-0.00019631585746537894]},{"mesh":1,"name":"metal_trash_can_lid","rotation":[0,0,0.6117722392082214,0.7910341024398804],"translation":[0.12573447823524475,0.2858511209487915,-0.000007379671842500102]},{"mesh":2,"name":"metal_trash_can","translation":[0.5,0,0]},{"mesh":3,"name":"metal_trash_can_handle_right","rotation":[0,0,-0.793353259563446,0.6087616086006165],"translation":[0.7945746779441833,0.6497123837471008,-0.00019631585746537894]},{"mesh":4,"name":"metal_trash_can_rust","translation":[-0.5,0,0]},{"mesh":5,"name":"metal_trash_can_rust_handle_left","rotation":[0,0,-0.793353259563446,0.6087616086006165],"translation":[-0.7730016112327576,0.6497123837471008,-0.00019631585746537894]},{"mesh":6,"name":"metal_trash_can_rust_handle_right","rotation":[0,0,-0.32344791293144226,0.9462459683418274],"translation":[-0.22699832916259766,0.6497123837471008,-0.00019631585746537894]},{"mesh":7,"name":"metal_trash_can_rust_lid","rotation":[0,0,0.6117722392082214,0.7910341024398804],"translation":[-0.8742655515670776,0.2858511209487915,-0.000007379671842500102]}],"materials":[{"doubleSided":true,"name":"metal_trash_can","normalTexture":{"index":0},"pbrMetallicRoughness":{"baseColorTexture":{"index":1},"metallicRoughnessTexture":{"index":2}}},{"doubleSided":true,"name":"metal_trash_can_rust","normalTexture":{"index":3},"pbrMetallicRoughness":{"baseColorTexture":{"index":4},"metallicRoughnessTexture":{"index":5}}},{"doubleSided":true,"name":"metal_trash_can_rust","normalTexture":{"index":6},"pbrMetallicRoughness":{"baseColorTexture":{"index":7},"metallicRoughnessTexture":{"index":8}}}],"meshes":[{"name":"Cylinder.003","primitives":[{"attributes":{"POSITION":0,"NORMAL":1,"TEXCOORD_0":2},"indices":3,"material":0,"mode":4}]},{"name":"Cylinder.002","primitives":[{"attributes":{"POSITION":4,"NORMAL":5,"TEXCOORD_0":6},"indices":7,"material":0,"mode":4}]},{"name":"Cylinder","primitives":[{"attributes":{"POSITION":8,"NORMAL":9,"TEXCOORD_0":10},"indices":11,"material":0,"mode":4}]},{"name":"Cylinder.001","primitives":[{"attributes":{"POSITION":12,"NORMAL":13,"TEXCOORD_0":14},"indices":15,"material":0,"mode":4}]},{"name":"Cylinder.005","primitives":[{"attributes":{"POSITION":16,"NORMAL":17,"TEXCOORD_0":18},"indices":19,"material":1,"mode":4}]},{"name":"Cylinder.007","primitives":[{"attributes":{"POSITION":20,"NORMAL":21,"TEXCOORD_0":22},"indices":23,"material":2,"mode":4}]},{"name":"Cylinder.008","primitives":[{"attributes":{"POSITION":24,"NORMAL":25,"TEXCOORD_0":26},"indices":27,"material":2,"mode":4}]},{"name":"Cylinder.006","primitives":[{"attributes":{"POSITION":28,"NORMAL":29,"TEXCOORD_0":30},"indices":31,"material":2,"mode":4}]}],"textures":[{"sampler":0,"source":0},{"sampler":0,"source":1},{"sampler":0,"source":2},{"sampler":0,"source":3},{"sampler":0,"source":4},{"sampler":0,"source":5},{"sampler":0,"source":3},{"sampler":0,"source":4},{"sampler":0,"source":5}],"images":[{"mimeType":"image/jpeg","name":"metal_trash_can_nor_gl","uri":"textures/metal_trash_can_nor_gl_1k.jpg"},{"mimeType":"image/jpeg","name":"metal_trash_can_diff","uri":"textures/metal_trash_can_diff_1k.jpg"},{"mimeType":"image/jpeg","name":"metal_trash_can_metal-metal_trash_can_rough","uri":"textures/metal_trash_can_arm_1k.jpg"},{"mimeType":"image/jpeg","name":"metal_trash_can_rust_nor_gl","uri":"textures/metal_trash_can_rust_nor_gl_1k.jpg"},{"mimeType":"image/jpeg","name":"metal_trash_can_rust_diff","uri":"textures/metal_trash_can_rust_diff_1k.jpg"},{"mimeType":"image/jpeg","name":"metal_trash_can_rust_metal-metal_trash_can_rust_rough","uri":"textures/metal_trash_can_rust_arm_1k.jpg"}],"accessors":[{"bufferView":0,"componentType":5126,"count":11,"type":"VEC3","min":[-0.06598570197820663,-0.06905318796634674,-0.09100034087896347],"max":[0.007118195295333862,0.0061703152023255825,0.09100038558244705]},{"bufferView":1,"componentType":5126,"count":11,"type":"VEC3"},{"bufferView":2,"componentType":5126,"count":11,"type":"VEC2"},{"bufferView":3,"componentType":5125,"count":24,"type":"SCALAR"},{"bufferView":4,"componentType":5126,"count":134,"type":"VEC3","min":[-0.26896190643310547,-0.03683269023895264,-0.26891690492630005],"max":[0.2688865661621094,0.07810896635055542,0.26893150806427]},{"bufferView":5,"componentType":5126,"count":134,"type":"VEC3"},{"bufferView":6,"componentType":5126,"count":134,"type":"VEC2"},{"bufferView":7,"componentType":5125,"count":765,"type":"SCALAR"},{"bufferView":8,"componentType":5126,"count":279,"type":"VEC3","min":[-0.2986113429069519,0.00007153064507292584,-0.2756936252117157],"max":[0.2986113131046295,0.9062314629554749,0.2756936252117157]},{"bufferView":9,"componentType":5126,"count":279,"type":"VEC3"},{"bufferView":10,"componentType":5126,"count":279,"type":"VEC2"},{"bufferView":11,"componentType":5125,"count":1818,"type":"SCALAR"},{"bufferView":12,"componentType":5126,"count":15,"type":"VEC3","min":[-0.08598337322473526,-0.04972811043262482,-0.09099964797496796],"max":[0.013925299048423767,0.005579147953540087,0.09099960327148438]},{"bufferView":13,"componentType":5126,"count":15,"type":"VEC3"},{"bufferView":14,"componentType":5126,"count":15,"type":"VEC2"},{"bufferView":15,"componentType":5125,"count":48,"type":"SCALAR"},{"bufferView":16,"componentType":5126,"count":586,"type":"VEC3","min":[-0.2879129946231842,0.00006173570000100881,-0.2738999128341675],"max":[0.2883431017398834,0.906173586845398,0.27431339025497437]},{"bufferView":17,"componentType":5126,"count":586,"type":"VEC3"},{"bufferView":18,"componentType":5126,"count":586,"type":"VEC2"},{"bufferView":19,"componentType":5125,"count":3987,"type":"SCALAR"},{"bufferView":20,"componentType":5126,"count":12,"type":"VEC3","min":[-0.07614726573228836,-0.07033102214336395,-0.09100034087896347],"max":[0.007118195295333862,0.0061703152023255825,0.09100038558244705]},{"bufferView":21,"componentType":5126,"count":12,"type":"VEC3"},{"bufferView":22,"componentType":5126,"count":12,"type":"VEC2"},{"bufferView":23,"componentType":5125,"count":24,"type":"SCALAR"},{"bufferView":24,"componentType":5126,"count":12,"type":"VEC3","min":[-0.007583929691463709,-0.06795420497655869,-0.09100034087896347],"max":[0.06457152217626572,0.0061703152023255825,0.09100038558244705]},{"bufferView":25,"componentType":5126,"count":12,"type":"VEC3"},{"bufferView":26,"componentType":5126,"count":12,"type":"VEC2"},{"bufferView":27,"componentType":5125,"count":24,"type":"SCALAR"},{"bufferView":28,"componentType":5126,"count":161,"type":"VEC3","min":[-0.26896220445632935,-0.03810993954539299,-0.2599331736564636],"max":[0.2688768804073334,0.07810896635055542,0.2682414650917053]},{"bufferView":29,"componentType":5126,"count":161,"type":"VEC3"},{"bufferView":30,"componentType":5126,"count":161,"type":"VEC2"},{"bufferView":31,"componentType":5125,"count":960,"type":"SCALAR"}],"bufferViews":[{"buffer":0,"byteOffset":0,"byteLength":132},{"buffer":0,"byteOffset":132,"byteLength":132},{"buffer":0,"byteOffset":264,"byteLength":88},{"buffer":0,"byteOffset":352,"byteLength":96},{"buffer":0,"byteOffset":448,"byteLength":1608},{"buffer":0,"byteOffset":2056,"byteLength":1608},{"buffer":0,"byteOffset":3664,"byteLength":1072},{"buffer":0,"byteOffset":4736,"byteLength":3060},{"buffer":0,"byteOffset":7796,"byteLength":3348},{"buffer":0,"byteOffset":11144,"byteLength":3348},{"buffer":0,"byteOffset":14492,"byteLength":2232},{"buffer":0,"byteOffset":16724,"byteLength":7272},{"buffer":0,"byteOffset":23996,"byteLength":180},{"buffer":0,"byteOffset":24176,"byteLength":180},{"buffer":0,"byteOffset":24356,"byteLength":120},{"buffer":0,"byteOffset":24476,"byteLength":192},{"buffer":0,"byteOffset":24668,"byteLength":7032},{"buffer":0,"byteOffset":31700,"byteLength":7032},{"buffer":0,"byteOffset":38732,"byteLength":4688},{"buffer":0,"byteOffset":43420,"byteLength":15948},{"buffer":0,"byteOffset":59368,"byteLength":144},{"buffer":0,"byteOffset":59512,"byteLength":144},{"buffer":0,"byteOffset":59656,"byteLength":96},{"buffer":0,"byteOffset":59752,"byteLength":96},{"buffer":0,"byteOffset":59848,"byteLength":144},{"buffer":0,"byteOffset":59992,"byteLength":144},{"buffer":0,"byteOffset":60136,"byteLength":96},{"buffer":0,"byteOffset":60232,"byteLength":96},{"buffer":0,"byteOffset":60328,"byteLength":1932},{"buffer":0,"byteOffset":62260,"byteLength":1932},{"buffer":0,"byteOffset":64192,"byteLength":1288},{"buffer":0,"byteOffset":65480,"byteLength":3840}],"samplers":[{"magFilter":9729,"minFilter":9987}],"buffers":[{"byteLength":69320,"uri":"metal_trash_can.bin"}]}